<svg width="116" height="16" viewBox="0 0 116 16" fill="none" xmlns="http://www.w3.org/2000/svg">
<path d="M6.54 13.14C5.47333 13.14 4.56667 13.0667 3.82 12.92C3.07333 12.7733 2.46 12.5267 1.98 12.18C1.51333 11.82 1.16667 11.3333 0.94 10.72C0.726667 10.1067 0.62 9.33333 0.62 8.4C0.62 7.44 0.733333 6.66 0.96 6.06C1.18667 5.44667 1.54 4.96667 2.02 4.62C2.51333 4.26 3.13333 4.00667 3.88 3.86C4.64 3.71333 5.54667 3.64 6.6 3.64C7.65333 3.64 8.55333 3.71333 9.3 3.86C10.0467 4.00667 10.6533 4.26 11.12 4.62C11.6 4.96667 11.9467 5.44667 12.16 6.06C12.3867 6.67333 12.5 7.45333 12.5 8.4C12.5 9.34667 12.3867 10.1267 12.16 10.74C11.9333 11.3533 11.58 11.84 11.1 12.2C10.62 12.5467 10 12.7933 9.24 12.94C8.49333 13.0733 7.59333 13.14 6.54 13.14ZM6.56 11.44C7 11.44 7.38 11.4 7.7 11.32C8.03333 11.2267 8.3 11.0667 8.5 10.84C8.71333 10.6133 8.86667 10.3067 8.96 9.92C9.06667 9.52 9.12 9.01333 9.12 8.4C9.12 7.77333 9.06667 7.26667 8.96 6.88C8.86667 6.48 8.71333 6.17333 8.5 5.96C8.3 5.73333 8.03333 5.58 7.7 5.5C7.38 5.40667 7 5.36 6.56 5.36C6.10667 5.36 5.71333 5.40667 5.38 5.5C5.06 5.58 4.8 5.73333 4.6 5.96C4.4 6.17333 4.24667 6.48 4.14 6.88C4.03333 7.26667 3.98 7.77333 3.98 8.4C3.98 9.01333 4.03333 9.52 4.14 9.92C4.24667 10.3067 4.4 10.6133 4.6 10.84C4.8 11.0667 5.06 11.2267 5.38 11.32C5.71333 11.4 6.10667 11.44 6.56 11.44ZM16.525 13H14.365C14.0717 13 13.8583 12.9267 13.725 12.78C13.5917 12.6333 13.525 12.34 13.525 11.9V5.42C13.8983 5.32667 14.4383 5.22667 15.145 5.12C15.865 5.01333 16.6717 4.96 17.565 4.96C18.4983 4.96 19.2317 5.01333 19.765 5.12C20.3117 5.22667 20.7117 5.39333 20.965 5.62C21.2183 5.83333 21.3783 6.11333 21.445 6.46C21.525 6.79333 21.565 7.2 21.565 7.68H18.705V7.4C18.705 7.08 18.645 6.84667 18.525 6.7C18.4183 6.55333 18.285 6.46 18.125 6.42C17.965 6.38 17.7983 6.36 17.625 6.36C17.3583 6.36 17.125 6.38667 16.925 6.44C16.7383 6.49333 16.605 6.57333 16.525 6.68V13ZM24.6028 13.08C23.7095 13.08 23.0895 12.9067 22.7428 12.56C22.3961 12.2133 22.2228 11.6467 22.2228 10.86L22.2428 5.02H25.2228V10.74C25.2228 11.1533 25.2828 11.4533 25.4028 11.64C25.5361 11.8133 25.7495 11.9 26.0428 11.9C26.2161 11.9 26.3628 11.8867 26.4828 11.86C26.6028 11.8333 26.6761 11.8133 26.7028 11.8V12.9C26.6495 12.9133 26.5495 12.9333 26.4028 12.96C26.2561 12.9867 26.0428 13.0133 25.7628 13.04C25.4828 13.0667 25.0961 13.08 24.6028 13.08ZM23.7628 4.06C23.2961 4.06 22.9628 4 22.7628 3.88C22.5628 3.76 22.4628 3.54 22.4628 3.22C22.4628 2.9 22.5628 2.68 22.7628 2.56C22.9761 2.42667 23.3228 2.36 23.8028 2.36C24.2561 2.37333 24.5761 2.44 24.7628 2.56C24.9628 2.68 25.0561 2.9 25.0428 3.22C25.0428 3.54 24.9495 3.76 24.7628 3.88C24.5895 4 24.2561 4.06 23.7628 4.06ZM31.5544 13.12C30.7944 13.12 30.121 13.0667 29.5344 12.96C28.9477 12.8533 28.4544 12.6533 28.0544 12.36C27.6677 12.0667 27.3744 11.6533 27.1744 11.12C26.9744 10.5733 26.8744 9.87333 26.8744 9.02C26.8744 8.16667 26.9744 7.47333 27.1744 6.94C27.3744 6.39333 27.6677 5.97333 28.0544 5.68C28.4544 5.38667 28.9477 5.18667 29.5344 5.08C30.121 4.97333 30.7944 4.92 31.5544 4.92C32.3277 4.92 33.001 4.97333 33.5744 5.08C34.1477 5.18667 34.6277 5.38667 35.0144 5.68C35.401 5.97333 35.6944 6.39333 35.8944 6.94C36.0944 7.47333 36.1944 8.16667 36.1944 9.02C36.1944 9.87333 36.0944 10.5733 35.8944 11.12C35.6944 11.6667 35.3944 12.0867 34.9944 12.38C34.6077 12.66 34.1277 12.8533 33.5544 12.96C32.981 13.0667 32.3144 13.12 31.5544 13.12ZM31.5544 11.66C31.9277 11.66 32.2277 11.5933 32.4544 11.46C32.6944 11.3133 32.8744 11.0533 32.9944 10.68C33.1144 10.2933 33.1744 9.74 33.1744 9.02C33.1744 8.3 33.1144 7.75333 32.9944 7.38C32.8744 6.99333 32.6944 6.73333 32.4544 6.6C32.2277 6.45333 31.9277 6.38 31.5544 6.38C31.2077 6.38 30.9077 6.45333 30.6544 6.6C30.401 6.73333 30.2077 6.99333 30.0744 7.38C29.9544 7.75333 29.8944 8.3 29.8944 9.02C29.8944 9.74 29.9544 10.2933 30.0744 10.68C30.2077 11.0533 30.401 11.3133 30.6544 11.46C30.9077 11.5933 31.2077 11.66 31.5544 11.66ZM37.9998 13C37.4932 13 37.2398 12.74 37.2398 12.22V5.5C37.6398 5.36667 38.2398 5.24667 39.0398 5.14C39.8398 5.02 40.7198 4.96 41.6798 4.96C42.7065 4.96 43.5132 5.02 44.0998 5.14C44.6998 5.24667 45.1398 5.44 45.4198 5.72C45.7132 5.98667 45.8998 6.34667 45.9798 6.8C46.0732 7.25333 46.1198 7.82 46.1198 8.5V11.88C46.1198 12.1733 46.0998 12.4067 46.0598 12.58C46.0198 12.74 45.9132 12.8533 45.7398 12.92C45.5798 12.9867 45.3265 13.02 44.9798 13.02L43.1598 13V7.8C43.1598 7.36 43.0265 7.04667 42.7598 6.86C42.4932 6.67333 42.1332 6.58 41.6798 6.58C41.5198 6.58 41.3465 6.6 41.1598 6.64C40.9732 6.66667 40.7932 6.70667 40.6198 6.76C40.4598 6.8 40.3265 6.86 40.2198 6.94V13H37.9998ZM52.1513 8.4C52.1513 7.46667 52.2579 6.7 52.4713 6.1C52.6846 5.48667 53.0446 5.00667 53.5513 4.66C54.0579 4.31333 54.7313 4.06667 55.5713 3.92C56.4246 3.77333 57.4779 3.7 58.7313 3.7C59.2646 3.7 59.7646 3.72 60.2313 3.76C60.7113 3.78667 61.2113 3.84 61.7313 3.92C62.2913 3.98667 62.6579 4.12 62.8312 4.32C63.0046 4.52 63.0913 4.79333 63.0913 5.14V6.16C62.7046 6.01333 62.2513 5.89333 61.7313 5.8C61.2246 5.70667 60.7179 5.64 60.2113 5.6C59.7046 5.54667 59.2579 5.52 58.8713 5.52C58.0846 5.52 57.4379 5.58667 56.9313 5.72C56.4379 5.85333 56.0779 6.12667 55.8513 6.54C55.6246 6.95333 55.5113 7.58 55.5113 8.42C55.5113 9.22 55.6246 9.82667 55.8513 10.24C56.0779 10.6533 56.4579 10.9333 56.9913 11.08C57.5246 11.2267 58.2313 11.3 59.1113 11.3C59.4846 11.3 59.8779 11.28 60.2913 11.24C60.7179 11.1867 61.1579 11.12 61.6113 11.04C62.0779 10.96 62.5713 10.86 63.0913 10.74V11.68C63.0913 12 62.9979 12.2667 62.8113 12.48C62.6246 12.68 62.2446 12.82 61.6713 12.9C61.1646 12.98 60.6579 13.0333 60.1513 13.06C59.6579 13.0867 59.1446 13.1 58.6113 13.1C57.3446 13.1 56.2913 13.0333 55.4513 12.9C54.6246 12.7533 53.9646 12.5067 53.4713 12.16C52.9913 11.8133 52.6513 11.34 52.4513 10.74C52.2513 10.1267 52.1513 9.34667 52.1513 8.4ZM79.5533 15.14L79.5733 6.54C79.5733 6.22 79.5666 5.93333 79.5533 5.68C79.5533 5.42667 79.5399 5.27333 79.5133 5.22C79.6199 5.19333 79.8466 5.16667 80.1933 5.14C80.5399 5.1 80.9399 5.06667 81.3933 5.04C81.8466 5.01333 82.2999 4.99333 82.7533 4.98C83.2199 4.95333 83.6399 4.94 84.0133 4.94C85.2533 4.94 86.2266 5.08 86.9333 5.36C87.6399 5.62667 88.1333 6.06 88.4133 6.66C88.7066 7.26 88.8399 8.05333 88.8133 9.04C88.7866 10.04 88.6599 10.84 88.4333 11.44C88.2066 12.0267 87.8199 12.4467 87.2733 12.7C86.7399 12.94 85.9999 13.06 85.0533 13.06C84.4666 13.06 83.9799 13.0067 83.5933 12.9C83.2066 12.78 82.8999 12.6067 82.6733 12.38C82.4466 12.14 82.2733 11.8533 82.1533 11.52L82.5733 11.34V15.14H79.5533ZM84.2133 11.46C84.8399 11.46 85.2533 11.2533 85.4533 10.84C85.6666 10.4133 85.7733 9.75333 85.7733 8.86C85.7866 7.99333 85.6733 7.39333 85.4333 7.06C85.2066 6.71333 84.7666 6.54 84.1133 6.54C83.9533 6.54 83.7799 6.54667 83.5933 6.56C83.4066 6.56 83.2199 6.56667 83.0333 6.58C82.8599 6.59333 82.7066 6.60667 82.5733 6.62V9.48C82.5733 10.0267 82.6399 10.44 82.7733 10.72C82.9066 11 83.0933 11.1933 83.3333 11.3C83.5733 11.4067 83.8666 11.46 84.2133 11.46ZM92.1927 13.08C91.2993 13.08 90.6793 12.9067 90.3327 12.56C89.986 12.2133 89.8127 11.6467 89.8127 10.86L89.8327 5.02H92.8127V10.74C92.8127 11.1533 92.8727 11.4533 92.9927 11.64C93.126 11.8133 93.3393 11.9 93.6327 11.9C93.806 11.9 93.9527 11.8867 94.0727 11.86C94.1927 11.8333 94.266 11.8133 94.2927 11.8V12.9C94.2393 12.9133 94.1393 12.9333 93.9927 12.96C93.846 12.9867 93.6327 13.0133 93.3527 13.04C93.0727 13.0667 92.686 13.08 92.1927 13.08ZM91.3527 4.06C90.886 4.06 90.5527 4 90.3527 3.88C90.1527 3.76 90.0527 3.54 90.0527 3.22C90.0527 2.9 90.1527 2.68 90.3527 2.56C90.566 2.42667 90.9127 2.36 91.3927 2.36C91.846 2.37333 92.166 2.44 92.3527 2.56C92.5527 2.68 92.646 2.9 92.6327 3.22C92.6327 3.54 92.5393 3.76 92.3527 3.88C92.1793 4 91.846 4.06 91.3527 4.06ZM98.0209 13.08C97.3009 13.08 96.7343 13.0067 96.3209 12.86C95.9209 12.7 95.6409 12.4467 95.4809 12.1C95.3209 11.74 95.2409 11.2467 95.2409 10.62V6.58H94.3809V5.02H95.2409V4C95.2409 3.66667 95.2609 3.42 95.3009 3.26C95.3543 3.1 95.4543 3 95.6009 2.96C95.7476 2.92 95.9809 2.9 96.3009 2.9H98.2209C98.2209 2.95333 98.2209 3.02 98.2209 3.1C98.2209 3.18 98.2209 3.28 98.2209 3.4V5.02H100.161V6.58H98.2409V10.38C98.2409 10.9133 98.2876 11.3 98.3809 11.54C98.4876 11.78 98.7609 11.9 99.2009 11.9C99.3209 11.9 99.4743 11.8867 99.6609 11.86C99.8609 11.8333 100.001 11.8067 100.081 11.78V12.88C99.9876 12.8933 99.7543 12.9333 99.3809 13C99.0209 13.0533 98.5676 13.08 98.0209 13.08ZM105.123 13.1C104.189 13.1 103.436 13.0667 102.863 13C102.289 12.9467 101.843 12.8333 101.523 12.66C101.216 12.4867 101.009 12.24 100.903 11.92C100.796 11.6 100.743 11.1867 100.743 10.68C100.743 10 100.809 9.48667 100.943 9.14C101.076 8.78 101.309 8.53333 101.643 8.4C101.976 8.26667 102.423 8.2 102.983 8.2C103.316 8.2 103.696 8.20667 104.123 8.22C104.563 8.22 104.989 8.22667 105.403 8.24C105.829 8.25333 106.196 8.28 106.503 8.32C106.823 8.34667 107.043 8.37333 107.163 8.4C107.163 7.98667 107.123 7.66 107.043 7.42C106.976 7.18 106.863 7 106.703 6.88C106.543 6.74667 106.329 6.66 106.063 6.62C105.796 6.58 105.469 6.56 105.083 6.56C104.616 6.56 104.149 6.56667 103.683 6.58C103.229 6.59333 102.783 6.62 102.343 6.66C101.916 6.7 101.523 6.74667 101.163 6.8V6.24C101.163 5.88 101.243 5.61333 101.403 5.44C101.563 5.26667 101.783 5.15333 102.063 5.1C102.369 5.03333 102.823 4.98667 103.423 4.96C104.036 4.93333 104.696 4.92 105.403 4.92C106.296 4.92 107.043 4.96667 107.643 5.06C108.256 5.15333 108.736 5.32 109.083 5.56C109.429 5.8 109.676 6.16 109.823 6.64C109.969 7.10667 110.043 7.73333 110.043 8.52V12.5C109.829 12.7 109.296 12.8533 108.443 12.96C107.603 13.0533 106.496 13.1 105.123 13.1ZM105.103 11.86C105.476 11.86 105.789 11.8533 106.043 11.84C106.309 11.8133 106.536 11.78 106.723 11.74C106.909 11.7 107.056 11.6533 107.163 11.6V9.36C107.016 9.32 106.809 9.28667 106.543 9.26C106.289 9.23333 106.029 9.21333 105.763 9.2C105.496 9.18667 105.289 9.18 105.143 9.18C104.823 9.18 104.563 9.20667 104.363 9.26C104.163 9.31333 104.016 9.43333 103.923 9.62C103.843 9.80667 103.803 10.0933 103.803 10.48C103.803 10.8133 103.836 11.0867 103.903 11.3C103.969 11.5 104.096 11.6467 104.283 11.74C104.469 11.82 104.743 11.86 105.103 11.86ZM113.766 13.08C112.833 13.08 112.159 12.9267 111.746 12.62C111.333 12.3 111.126 11.74 111.126 10.94V3.98C111.126 3.68667 111.153 3.46 111.206 3.3C111.259 3.14 111.366 3.03333 111.526 2.98C111.686 2.92667 111.919 2.9 112.226 2.9H114.166C114.153 2.94 114.133 3.08667 114.106 3.34C114.093 3.59333 114.086 3.87333 114.086 4.18V10.6C114.086 11.08 114.146 11.42 114.266 11.62C114.386 11.8067 114.613 11.9 114.946 11.9C115.066 11.9 115.193 11.8867 115.326 11.86C115.473 11.8333 115.559 11.8133 115.586 11.8V12.9C115.493 12.9133 115.319 12.9467 115.066 13C114.813 13.0533 114.379 13.08 113.766 13.08Z" fill="#151516"/>
<g clip-path="url(#clip0_1138_2744)">
<path d="M71.565 1.39019C71.3954 1.4105 66.109 4.95503 66.0786 5.06269C66.0481 5.17136 66.0359 6.30074 66.0359 6.30074L66.7174 6.51707L66.7204 7.41488L67.0851 8.16136V11.3169L66.8129 11.911L66.0664 12.1314V12.6657L65.4814 12.8434C65.4814 12.8434 65.4895 13.3014 65.4895 13.3776C65.4895 13.4538 65.5149 13.6153 65.8206 13.6153C66.1263 13.6153 77.284 13.5635 77.3967 13.5635C77.5094 13.5635 77.6262 13.5411 77.6323 13.339C77.6384 13.1369 77.6262 12.8515 77.6262 12.8515L77.0595 12.5712L77.0575 12.1233L76.1353 11.8389L75.9129 11.2093L75.9159 8.24261L76.2694 7.49714L76.376 7.29503V6.49269L76.9701 6.26824C76.9701 6.26824 76.9813 5.10738 76.964 5.07386C76.9488 5.04136 71.7051 1.37394 71.565 1.39019Z" fill="#CDDFEE"/>
<path d="M66.557 5.29822C66.5255 5.37643 66.5174 5.9533 66.5458 5.98174C66.5742 6.01018 76.3913 5.99494 76.4248 5.96752C76.4583 5.9401 76.4634 5.31346 76.4471 5.27486C76.4309 5.23627 73.6633 3.34619 73.6633 3.34619L69.3845 3.36752C69.3834 3.36752 66.5752 5.2515 66.557 5.29822ZM65.4814 12.8453C65.4723 12.823 65.4814 12.7174 65.4814 12.6747C65.4814 12.6321 65.522 12.5833 65.6134 12.5833C65.7049 12.5833 77.3074 12.5671 77.3642 12.5691C77.5074 12.5742 77.6039 12.6046 77.6181 12.696C77.6324 12.7874 77.6273 12.8535 77.6273 12.8535L65.4814 12.8453ZM77.0585 12.1242L66.0674 12.1324C66.0674 12.1324 66.0715 12.0196 66.0715 11.981C66.0715 11.9424 66.0918 11.8795 66.2228 11.8795C66.3538 11.8795 76.7772 11.8399 76.8666 11.8399C76.9559 11.8399 77.0535 11.8815 77.0656 11.9435C77.0778 12.0054 77.0585 12.1242 77.0585 12.1242ZM75.9952 11.4438L75.9139 11.2061L67.0831 11.2041L67.017 11.4692L75.9952 11.4438ZM66.9815 7.94494L76.047 7.97643L75.917 8.24252L67.0861 8.27604L66.9815 7.94494ZM66.7834 7.57119C66.7834 7.57119 66.7032 7.5133 66.69 7.43713C66.6768 7.36096 66.7124 7.31627 66.7124 7.31627L76.377 7.29494C76.377 7.29494 76.4136 7.3701 76.3821 7.42291C76.3506 7.47674 76.2613 7.52549 76.2613 7.52549L66.7834 7.57119ZM66.0359 6.30064L76.9712 6.26814C76.9712 6.26814 76.9783 6.37275 76.9712 6.41643C76.9651 6.4601 76.9082 6.49869 76.763 6.49869H76.6177C76.6177 6.49869 66.3813 6.54947 66.2675 6.54947C66.1538 6.54947 66.0725 6.4865 66.0532 6.43572C66.042 6.40221 66.0359 6.30064 66.0359 6.30064Z" fill="#94ADBC"/>
<path d="M66.8292 5.57344L69.1296 4.02055L69.2839 5.60391L66.8292 5.57344ZM73.8918 3.96875L76.1953 5.59375H73.8299L73.8918 3.96875Z" fill="#657582"/>
<path d="M68.3932 7.56416L68.772 7.56314L69.0686 8.2751L69.0412 11.2062L68.7944 11.8704L68.3536 11.8714L68.1108 11.2103L68.0997 8.269L68.3932 7.56416ZM70.4102 7.554L70.0334 8.25885L70.0619 11.2062L70.2853 11.8653L72.7462 11.8552L72.9676 11.2062L72.9737 8.25275L72.6862 7.54283L70.4102 7.554ZM74.2797 7.53572L74.6139 7.53369L74.9094 8.24564L74.9084 11.2072L74.7368 11.8491L74.1792 11.8501L74.0086 11.2072L73.9954 8.24869L74.2797 7.53572Z" fill="#54636E"/>
<path d="M70.5474 11.8643V9.60449L72.5299 9.62379L72.5339 11.8582L70.5474 11.8643Z" fill="#6BA4AE"/>
<path d="M71.4248 9.50195L71.4238 11.8613L71.629 11.8602V9.53648L71.4248 9.50195Z" fill="#A5D0D7"/>
<path d="M70.5474 9.71223V9.14551H72.5299V9.71223C72.5299 9.71223 70.5646 9.69496 70.5474 9.71223Z" fill="#95ACBC"/>
<path d="M70.5473 9.14525H72.5298C72.5298 9.14525 72.538 8.96853 72.3541 8.95127C72.1703 8.934 70.8195 8.94822 70.7058 8.95127C70.5362 8.95635 70.5473 9.14525 70.5473 9.14525Z" fill="#CCDEED"/>
<path d="M71.5396 2.12848C70.068 2.13762 68.9031 3.30152 68.9528 4.77317C69.0026 6.24481 70.3524 7.27973 71.5396 7.27059C72.7858 7.26145 74.098 6.36973 74.1569 4.76504C74.2168 3.16137 72.866 2.11934 71.5396 2.12848Z" fill="#CDDFEE"/>
<path d="M71.5487 2.481C70.3168 2.48912 69.3306 3.49967 69.3722 4.78139C69.4129 6.06311 70.4976 6.87561 71.4919 6.88475C72.6385 6.89491 73.6937 6.14537 73.7425 4.74889C73.7912 3.35241 72.6588 2.47389 71.5487 2.481Z" fill="#94ADBC"/>
<path d="M71.1933 3.19686C71.1933 3.19686 71.171 2.80482 71.1984 2.77131C71.2258 2.73779 71.3375 2.73779 71.5538 2.73779C71.7712 2.73779 71.8595 2.73779 71.8931 2.76521C71.9266 2.79264 71.9093 3.22123 71.9093 3.22123C71.9093 3.22123 72.2038 3.33193 72.3877 3.47412C72.5827 3.62443 72.7218 3.82451 72.7106 3.85803C72.6995 3.89154 72.3105 4.23076 72.2546 4.21959C72.1988 4.20842 71.8819 3.83771 71.5041 3.81334C70.9038 3.77475 70.9089 4.24193 71.2817 4.3699C71.6544 4.49787 72.8295 4.59943 72.7838 5.53482C72.7452 6.32193 71.9499 6.37779 71.9499 6.37779C71.9499 6.37779 71.9723 6.67232 71.9499 6.68959C71.9276 6.70686 71.2268 6.71701 71.2045 6.68451C71.1821 6.65201 71.1994 6.35037 71.1994 6.35037C71.1994 6.35037 70.8876 6.28943 70.6317 6.11678C70.3757 5.94412 70.1919 5.71662 70.1868 5.68818C70.1817 5.66076 70.6377 5.27686 70.6702 5.26568C70.7027 5.25451 71.1669 5.71154 71.6046 5.74912C72.0495 5.78771 72.2384 5.34896 71.6209 5.16006C71.0034 4.97115 70.2752 4.80967 70.3087 4.03678C70.3422 3.2517 71.1933 3.19686 71.1933 3.19686Z" fill="#024FAC"/>
</g>
<defs>
<clipPath id="clip0_1138_2744">
<rect width="13" height="13" fill="white" transform="translate(65 1)"/>
</clipPath>
</defs>
</svg>
