<svg width="96" height="14" viewBox="0 0 96 14" fill="none" xmlns="http://www.w3.org/2000/svg">
<path d="M17.06 13.08C16.34 13.08 15.7733 13.0067 15.36 12.86C14.96 12.7 14.68 12.4467 14.52 12.1C14.36 11.74 14.28 11.2467 14.28 10.62V6.58H13.42V5.02H14.28V4C14.28 3.66667 14.3 3.42 14.34 3.26C14.3933 3.1 14.4933 3 14.64 2.96C14.7867 2.92 15.02 2.9 15.34 2.9H17.26C17.26 2.95333 17.26 3.02 17.26 3.1C17.26 3.18 17.26 3.28 17.26 3.4V5.02H19.2V6.58H17.28V10.38C17.28 10.9133 17.3267 11.3 17.42 11.54C17.5267 11.78 17.8 11.9 18.24 11.9C18.36 11.9 18.5133 11.8867 18.7 11.86C18.9 11.8333 19.04 11.8067 19.12 11.78V12.88C19.0267 12.8933 18.7933 12.9333 18.42 13C18.06 13.0533 17.6067 13.08 17.06 13.08ZM22.6216 13.08C21.6882 13.08 21.0149 12.9267 20.6016 12.62C20.1882 12.3 19.9816 11.74 19.9816 10.94V3.98C19.9816 3.68667 20.0082 3.46 20.0616 3.3C20.1149 3.14 20.2216 3.03333 20.3816 2.98C20.5416 2.92667 20.7749 2.9 21.0816 2.9H23.0216C23.0082 2.94 22.9882 3.08667 22.9616 3.34C22.9482 3.59333 22.9416 3.87333 22.9416 4.18V10.6C22.9416 11.08 23.0016 11.42 23.1216 11.62C23.2416 11.8067 23.4682 11.9 23.8016 11.9C23.9216 11.9 24.0482 11.8867 24.1816 11.86C24.3282 11.8333 24.4149 11.8133 24.4416 11.8V12.9C24.3482 12.9133 24.1749 12.9467 23.9216 13C23.6682 13.0533 23.2349 13.08 22.6216 13.08ZM29.1108 13.1C28.1774 13.1 27.4241 13.0667 26.8508 13C26.2774 12.9467 25.8308 12.8333 25.5108 12.66C25.2041 12.4867 24.9974 12.24 24.8908 11.92C24.7841 11.6 24.7308 11.1867 24.7308 10.68C24.7308 10 24.7974 9.48667 24.9308 9.14C25.0641 8.78 25.2974 8.53333 25.6308 8.4C25.9641 8.26667 26.4108 8.2 26.9708 8.2C27.3041 8.2 27.6841 8.20667 28.1108 8.22C28.5508 8.22 28.9774 8.22667 29.3908 8.24C29.8174 8.25333 30.1841 8.28 30.4908 8.32C30.8108 8.34667 31.0308 8.37333 31.1508 8.4C31.1508 7.98667 31.1108 7.66 31.0308 7.42C30.9641 7.18 30.8508 7 30.6908 6.88C30.5308 6.74667 30.3174 6.66 30.0508 6.62C29.7841 6.58 29.4574 6.56 29.0708 6.56C28.6041 6.56 28.1374 6.56667 27.6708 6.58C27.2174 6.59333 26.7708 6.62 26.3308 6.66C25.9041 6.7 25.5108 6.74667 25.1508 6.8V6.24C25.1508 5.88 25.2308 5.61333 25.3908 5.44C25.5508 5.26667 25.7708 5.15333 26.0508 5.1C26.3574 5.03333 26.8108 4.98667 27.4108 4.96C28.0241 4.93333 28.6841 4.92 29.3908 4.92C30.2841 4.92 31.0308 4.96667 31.6308 5.06C32.2441 5.15333 32.7241 5.32 33.0708 5.56C33.4174 5.8 33.6641 6.16 33.8108 6.64C33.9574 7.10667 34.0308 7.73333 34.0308 8.52V12.5C33.8174 12.7 33.2841 12.8533 32.4308 12.96C31.5908 13.0533 30.4841 13.1 29.1108 13.1ZM29.0908 11.86C29.4641 11.86 29.7774 11.8533 30.0308 11.84C30.2974 11.8133 30.5241 11.78 30.7108 11.74C30.8974 11.7 31.0441 11.6533 31.1508 11.6V9.36C31.0041 9.32 30.7974 9.28667 30.5308 9.26C30.2774 9.23333 30.0174 9.21333 29.7508 9.2C29.4841 9.18667 29.2774 9.18 29.1308 9.18C28.8108 9.18 28.5508 9.20667 28.3508 9.26C28.1508 9.31333 28.0041 9.43333 27.9108 9.62C27.8308 9.80667 27.7908 10.0933 27.7908 10.48C27.7908 10.8133 27.8241 11.0867 27.8908 11.3C27.9574 11.5 28.0841 11.6467 28.2708 11.74C28.4574 11.82 28.7308 11.86 29.0908 11.86ZM38.8344 13.08C38.5144 13.08 38.1744 13.0733 37.8144 13.06C37.4544 13.0467 37.0944 13.02 36.7344 12.98C36.3877 12.94 36.0677 12.88 35.7744 12.8C35.5344 12.7467 35.3344 12.68 35.1744 12.6C35.0277 12.5067 34.9144 12.34 34.8344 12.1C34.7677 11.8467 34.7344 11.4533 34.7344 10.92C35.1477 11.0667 35.5744 11.1867 36.0144 11.28C36.4544 11.36 36.881 11.42 37.2944 11.46C37.721 11.4867 38.1144 11.5 38.4744 11.5C38.7277 11.5 39.001 11.5 39.2944 11.5C39.601 11.4867 39.8944 11.4533 40.1744 11.4C40.4544 11.3333 40.6877 11.2333 40.8744 11.1C41.061 10.9533 41.1544 10.7533 41.1544 10.5C41.1544 10.1933 41.0744 9.99333 40.9144 9.9C40.7544 9.80667 40.541 9.76 40.2744 9.76H37.9944C37.381 9.76 36.8344 9.72667 36.3544 9.66C35.8877 9.59333 35.5144 9.41333 35.2344 9.12C34.9677 8.81333 34.8344 8.3 34.8344 7.58C34.8344 6.79333 35.0277 6.21333 35.4144 5.84C35.8144 5.45333 36.381 5.2 37.1144 5.08C37.8477 4.96 38.7277 4.9 39.7544 4.9C40.1277 4.9 40.561 4.90667 41.0544 4.92C41.561 4.93333 42.001 4.96667 42.3744 5.02C42.7877 5.06 43.1077 5.12667 43.3344 5.22C43.5744 5.3 43.7477 5.43333 43.8544 5.62C43.961 5.79333 44.0144 6.06667 44.0144 6.44V7C43.9344 6.86667 43.7277 6.76667 43.3944 6.7C43.0744 6.62 42.681 6.56667 42.2144 6.54C41.761 6.51333 41.281 6.5 40.7744 6.5C40.281 6.5 39.821 6.5 39.3944 6.5C39.101 6.5 38.8277 6.52 38.5744 6.56C38.3344 6.58667 38.141 6.66667 37.9944 6.8C37.8477 6.92 37.7744 7.12 37.7744 7.4C37.7744 7.61333 37.821 7.77333 37.9144 7.88C38.0077 7.97333 38.1344 8.03333 38.2944 8.06C38.4544 8.08667 38.6344 8.1 38.8344 8.1H41.3744C41.9344 8.1 42.4277 8.15333 42.8544 8.26C43.281 8.35333 43.6077 8.56667 43.8344 8.9C44.061 9.22 44.1744 9.72667 44.1744 10.42C44.1744 11.22 43.9477 11.8067 43.4944 12.18C43.041 12.5533 42.4144 12.8 41.6144 12.92C40.8144 13.0267 39.8877 13.08 38.8344 13.08ZM49.5709 3.8H60.6109V5.54H56.7509V11.92C56.7509 12.3467 56.6843 12.6333 56.5509 12.78C56.4176 12.9267 56.1176 13 55.6509 13H53.4509V5.54H49.5709V3.8ZM64.3688 13H62.2088C61.9154 13 61.7021 12.9267 61.5688 12.78C61.4354 12.6333 61.3688 12.34 61.3688 11.9V5.42C61.7421 5.32667 62.2821 5.22667 62.9888 5.12C63.7088 5.01333 64.5154 4.96 65.4088 4.96C66.3421 4.96 67.0754 5.01333 67.6088 5.12C68.1554 5.22667 68.5554 5.39333 68.8088 5.62C69.0621 5.83333 69.2221 6.11333 69.2888 6.46C69.3688 6.79333 69.4088 7.2 69.4088 7.68H66.5488V7.4C66.5488 7.08 66.4888 6.84667 66.3688 6.7C66.2621 6.55333 66.1288 6.46 65.9688 6.42C65.8088 6.38 65.6421 6.36 65.4688 6.36C65.2021 6.36 64.9688 6.38667 64.7688 6.44C64.5821 6.49333 64.4488 6.57333 64.3688 6.68V13ZM72.9666 5.02V10.2C72.9666 10.68 73.0799 11.02 73.3066 11.22C73.5466 11.4067 73.9266 11.5 74.4466 11.5C74.9932 11.5 75.3799 11.4 75.6066 11.2C75.8332 10.9867 75.9466 10.66 75.9466 10.22V5.02C75.9599 5.02 76.0466 5.02 76.2066 5.02C76.3666 5.02 76.5466 5.02 76.7466 5.02C76.9599 5.00667 77.1532 5 77.3266 5C77.5132 5 77.6266 5 77.6666 5C77.9732 5 78.2199 5.02 78.4066 5.06C78.5932 5.08667 78.7266 5.16667 78.8066 5.3C78.8866 5.43333 78.9266 5.66667 78.9266 6V9.88C78.9266 10.68 78.8066 11.32 78.5666 11.8C78.3266 12.2667 77.8799 12.6067 77.2266 12.82C76.5732 13.02 75.6266 13.12 74.3866 13.12C73.2399 13.12 72.3466 13.04 71.7066 12.88C71.0666 12.7067 70.6199 12.4 70.3666 11.96C70.1132 11.52 69.9866 10.9 69.9866 10.1V6C69.9866 5.61333 70.0532 5.35333 70.1866 5.22C70.3199 5.07333 70.6066 5 71.0466 5C71.3666 5 71.6866 5.00667 72.0066 5.02C72.3266 5.02 72.6466 5.02 72.9666 5.02ZM83.7953 13.08C83.4753 13.08 83.1353 13.0733 82.7753 13.06C82.4153 13.0467 82.0553 13.02 81.6953 12.98C81.3486 12.94 81.0286 12.88 80.7353 12.8C80.4953 12.7467 80.2953 12.68 80.1353 12.6C79.9886 12.5067 79.8753 12.34 79.7953 12.1C79.7286 11.8467 79.6953 11.4533 79.6953 10.92C80.1086 11.0667 80.5353 11.1867 80.9753 11.28C81.4153 11.36 81.842 11.42 82.2553 11.46C82.682 11.4867 83.0753 11.5 83.4353 11.5C83.6886 11.5 83.962 11.5 84.2553 11.5C84.562 11.4867 84.8553 11.4533 85.1353 11.4C85.4153 11.3333 85.6486 11.2333 85.8353 11.1C86.022 10.9533 86.1153 10.7533 86.1153 10.5C86.1153 10.1933 86.0353 9.99333 85.8753 9.9C85.7153 9.80667 85.502 9.76 85.2353 9.76H82.9553C82.342 9.76 81.7953 9.72667 81.3153 9.66C80.8486 9.59333 80.4753 9.41333 80.1953 9.12C79.9286 8.81333 79.7953 8.3 79.7953 7.58C79.7953 6.79333 79.9886 6.21333 80.3753 5.84C80.7753 5.45333 81.342 5.2 82.0753 5.08C82.8086 4.96 83.6886 4.9 84.7153 4.9C85.0886 4.9 85.522 4.90667 86.0153 4.92C86.522 4.93333 86.962 4.96667 87.3353 5.02C87.7486 5.06 88.0686 5.12667 88.2953 5.22C88.5353 5.3 88.7086 5.43333 88.8153 5.62C88.922 5.79333 88.9753 6.06667 88.9753 6.44V7C88.8953 6.86667 88.6886 6.76667 88.3553 6.7C88.0353 6.62 87.642 6.56667 87.1753 6.54C86.722 6.51333 86.242 6.5 85.7353 6.5C85.242 6.5 84.782 6.5 84.3553 6.5C84.062 6.5 83.7886 6.52 83.5353 6.56C83.2953 6.58667 83.102 6.66667 82.9553 6.8C82.8086 6.92 82.7353 7.12 82.7353 7.4C82.7353 7.61333 82.782 7.77333 82.8753 7.88C82.9686 7.97333 83.0953 8.03333 83.2553 8.06C83.4153 8.08667 83.5953 8.1 83.7953 8.1H86.3353C86.8953 8.1 87.3886 8.15333 87.8153 8.26C88.242 8.35333 88.5686 8.56667 88.7953 8.9C89.022 9.22 89.1353 9.72667 89.1353 10.42C89.1353 11.22 88.9086 11.8067 88.4553 12.18C88.002 12.5533 87.3753 12.8 86.5753 12.92C85.7753 13.0267 84.8486 13.08 83.7953 13.08ZM93.0873 13.08C92.3673 13.08 91.8007 13.0067 91.3873 12.86C90.9873 12.7 90.7073 12.4467 90.5473 12.1C90.3873 11.74 90.3073 11.2467 90.3073 10.62V6.58H89.4473V5.02H90.3073V4C90.3073 3.66667 90.3273 3.42 90.3673 3.26C90.4207 3.1 90.5207 3 90.6673 2.96C90.814 2.92 91.0473 2.9 91.3673 2.9H93.2873C93.2873 2.95333 93.2873 3.02 93.2873 3.1C93.2873 3.18 93.2873 3.28 93.2873 3.4V5.02H95.2273V6.58H93.3073V10.38C93.3073 10.9133 93.354 11.3 93.4473 11.54C93.554 11.78 93.8273 11.9 94.2673 11.9C94.3873 11.9 94.5407 11.8867 94.7273 11.86C94.9273 11.8333 95.0673 11.8067 95.1473 11.78V12.88C95.054 12.8933 94.8207 12.9333 94.4473 13C94.0873 13.0533 93.634 13.08 93.0873 13.08Z" fill="#F7F7F7"/>
<g clip-path="url(#clip0_1138_2744)">
<path d="M6.56498 1.39019C6.39537 1.4105 1.10904 4.95503 1.07857 5.06269C1.0481 5.17136 1.03592 6.30074 1.03592 6.30074L1.7174 6.51707L1.72045 7.41488L2.08506 8.16136V11.3169L1.81287 11.911L1.06638 12.1314V12.6657L0.481384 12.8434C0.481384 12.8434 0.489509 13.3014 0.489509 13.3776C0.489509 13.4538 0.5149 13.6153 0.820603 13.6153C1.12631 13.6153 12.284 13.5635 12.3967 13.5635C12.5094 13.5635 12.6262 13.5411 12.6323 13.339C12.6384 13.1369 12.6262 12.8515 12.6262 12.8515L12.0595 12.5712L12.0575 12.1233L11.1353 11.8389L10.9129 11.2093L10.9159 8.24261L11.2694 7.49714L11.376 7.29503V6.49269L11.9701 6.26824C11.9701 6.26824 11.9813 5.10738 11.964 5.07386C11.9488 5.04136 6.70513 1.37394 6.56498 1.39019Z" fill="#CDDFEE"/>
<path d="M1.55697 5.29822C1.52548 5.37643 1.51736 5.9533 1.54579 5.98174C1.57423 6.01018 11.3913 5.99494 11.4248 5.96752C11.4583 5.9401 11.4634 5.31346 11.4471 5.27486C11.4309 5.23627 8.66329 3.34619 8.66329 3.34619L4.38447 3.36752C4.38345 3.36752 1.57525 5.2515 1.55697 5.29822ZM0.481418 12.8453C0.472278 12.823 0.481418 12.7174 0.481418 12.6747C0.481418 12.6321 0.522043 12.5833 0.61345 12.5833C0.704856 12.5833 12.3074 12.5671 12.3642 12.5691C12.5074 12.5742 12.6039 12.6046 12.6181 12.696C12.6324 12.7874 12.6273 12.8535 12.6273 12.8535L0.481418 12.8453ZM12.0585 12.1242L1.06743 12.1324C1.06743 12.1324 1.0715 12.0196 1.0715 11.981C1.0715 11.9424 1.09181 11.8795 1.22282 11.8795C1.35384 11.8795 11.7772 11.8399 11.8666 11.8399C11.9559 11.8399 12.0535 11.8815 12.0656 11.9435C12.0778 12.0054 12.0585 12.1242 12.0585 12.1242ZM10.9952 11.4438L10.9139 11.2061L2.08306 11.2041L2.01704 11.4692L10.9952 11.4438ZM1.9815 7.94494L11.047 7.97643L10.917 8.24252L2.08611 8.27604L1.9815 7.94494ZM1.78345 7.57119C1.78345 7.57119 1.70322 7.5133 1.69001 7.43713C1.67681 7.36096 1.71236 7.31627 1.71236 7.31627L11.377 7.29494C11.377 7.29494 11.4136 7.3701 11.3821 7.42291C11.3506 7.47674 11.2613 7.52549 11.2613 7.52549L1.78345 7.57119ZM1.03595 6.30064L11.9712 6.26814C11.9712 6.26814 11.9783 6.37275 11.9712 6.41643C11.9651 6.4601 11.9082 6.49869 11.763 6.49869H11.6177C11.6177 6.49869 1.38126 6.54947 1.26751 6.54947C1.15376 6.54947 1.07251 6.4865 1.05322 6.43572C1.04204 6.40221 1.03595 6.30064 1.03595 6.30064Z" fill="#94ADBC"/>
<path d="M1.82916 5.57344L4.12955 4.02055L4.28393 5.60391L1.82916 5.57344ZM8.89182 3.96875L11.1953 5.59375H8.82987L8.89182 3.96875Z" fill="#657582"/>
<path d="M3.39319 7.56416L3.77201 7.56314L4.06858 8.2751L4.04115 11.2062L3.79436 11.8704L3.35358 11.8714L3.11084 11.2103L3.09967 8.269L3.39319 7.56416ZM5.41022 7.554L5.03342 8.25885L5.06186 11.2062L5.2853 11.8653L7.74615 11.8552L7.96756 11.2062L7.97365 8.25275L7.68623 7.54283L5.41022 7.554ZM9.27975 7.53572L9.61389 7.53369L9.90944 8.24564L9.90842 11.2072L9.73678 11.8491L9.1792 11.8501L9.00858 11.2072L8.99537 8.24869L9.27975 7.53572Z" fill="#54636E"/>
<path d="M5.54736 11.8643V9.60449L7.52986 9.62379L7.53393 11.8582L5.54736 11.8643Z" fill="#6BA4AE"/>
<path d="M6.42484 9.50195L6.42383 11.8613L6.62898 11.8602V9.53648L6.42484 9.50195Z" fill="#A5D0D7"/>
<path d="M5.54736 9.71223V9.14551H7.52986V9.71223C7.52986 9.71223 5.56463 9.69496 5.54736 9.71223Z" fill="#95ACBC"/>
<path d="M5.54733 9.14525H7.52983C7.52983 9.14525 7.53796 8.96853 7.35413 8.95127C7.1703 8.934 5.81952 8.94822 5.70577 8.95127C5.53616 8.95635 5.54733 9.14525 5.54733 9.14525Z" fill="#CCDEED"/>
<path d="M6.53963 2.12848C5.06799 2.13762 3.90307 3.30152 3.95283 4.77317C4.0026 6.24481 5.35236 7.27973 6.53963 7.27059C7.7858 7.26145 9.09799 6.36973 9.15689 4.76504C9.21682 3.16137 7.86603 2.11934 6.53963 2.12848Z" fill="#CDDFEE"/>
<path d="M6.54873 2.481C5.31678 2.48912 4.3306 3.49967 4.37224 4.78139C4.41287 6.06311 5.49756 6.87561 6.49185 6.88475C7.63849 6.89491 8.69373 6.14537 8.74248 4.74889C8.79123 3.35241 7.65881 2.47389 6.54873 2.481Z" fill="#94ADBC"/>
<path d="M6.19329 3.19686C6.19329 3.19686 6.17095 2.80482 6.19837 2.77131C6.22579 2.73779 6.33751 2.73779 6.55384 2.73779C6.77118 2.73779 6.85954 2.73779 6.89306 2.76521C6.92658 2.79264 6.90931 3.22123 6.90931 3.22123C6.90931 3.22123 7.20384 3.33193 7.38767 3.47412C7.58267 3.62443 7.72181 3.82451 7.71064 3.85803C7.69947 3.89154 7.31048 4.23076 7.25462 4.21959C7.19876 4.20842 6.88189 3.83771 6.50408 3.81334C5.90384 3.77475 5.90892 4.24193 6.28165 4.3699C6.65439 4.49787 7.82947 4.59943 7.78376 5.53482C7.74517 6.32193 6.94993 6.37779 6.94993 6.37779C6.94993 6.37779 6.97228 6.67232 6.94993 6.68959C6.92759 6.70686 6.22681 6.71701 6.20447 6.68451C6.18212 6.65201 6.19939 6.35037 6.19939 6.35037C6.19939 6.35037 5.88759 6.28943 5.63165 6.11678C5.37572 5.94412 5.19189 5.71662 5.18681 5.68818C5.18173 5.66076 5.63775 5.27686 5.67025 5.26568C5.70275 5.25451 6.16689 5.71154 6.60462 5.74912C7.04947 5.78771 7.23837 5.34896 6.62087 5.16006C6.00337 4.97115 5.27517 4.80967 5.30868 4.03678C5.3422 3.2517 6.19329 3.19686 6.19329 3.19686Z" fill="#024FAC"/>
</g>
<defs>
<clipPath id="clip0_1138_2744">
<rect width="13" height="13" fill="white" transform="translate(0 1)"/>
</clipPath>
</defs>
</svg>
